# xmcd
#
# Track frame offsets:
#	150
#	18795
#	42417
#	55710
#	70872
#	88720
#	115162
#	130260
#	157340
#	171812
#
# Disc length: 2672 seconds
#
# Revision: 1
# Processed by: cddbd v1.5.2PL0 Copyright (c) Steve Scherf et al.
# Submitted via: EZCDAudioConverter 8.0.2.1
#
DISCID=810a6e0a
DTITLE=Lynda, Don Hồ, Henry Chúc - Oh! Won't You Tell Me
DYEAR=1998
DGENRE=Miscellaneous
TTITLE0=Lynda Trang Đài - Love Game
TTITLE1=Don Hồ - Dạ khúc cuối
TTITLE2=Henry Chúc - Pretty Women
TTITLE3=Lynda Trang Đài - Every Where I Go
TTITLE4=Henry Chúc - Lady In Red
TTITLE5=Lynda Trang Đài - Good Guy Only Win In A Movie
TTITLE6=Henry Chúc - Can't Live Without You
TTITLE7=Lynda Trang Đài - Stupid Cupid
TTITLE8=Henry Chúc - Make Me Feel So Good
TTITLE9=Lynda Trang Đài - Oh ! Won't You Tell Me
EXTD=
EXTT0=
EXTT1=
EXTT2=
EXTT3=
EXTT4=
EXTT5=
EXTT6=
EXTT7=
EXTT8=
EXTT9=
PLAYORDER=
